PathFileType	4	(X/Y/Z)	50_2_27_p1_0-212.trc
DataRate	CameraRate	NumFrames	NumMarkers	Units	OrigDataRate	OrigDataStartFrame	OrigNumFrames
53.0	53.0	7	27	m	53.0	159	213
Frame#	Time	RHip			RKnee			RAnkle			RBigToe			RSmallToe			RHeel			LHip			LKnee			LAnkle			LBigToe			LSmallToe			LHeel			Neck			Head			Nose			RShoulder			RElbow			RWrist			RThumb			RIndex			RPinky			LShoulder			LElbow			LWrist			LThumb			LIndex			LPinky			
		X1	Y1	Z1	X2	Y2	Z2	X3	Y3	Z3	X4	Y4	Z4	X5	Y5	Z5	X6	Y6	Z6	X7	Y7	Z7	X8	Y8	Z8	X9	Y9	Z9	X10	Y10	Z10	X11	Y11	Z11	X12	Y12	Z12	X13	Y13	Z13	X14	Y14	Z14	X15	Y15	Z15	X16	Y16	Z16	X17	Y17	Z17	X18	Y18	Z18	X19	Y19	Z19	X20	Y20	Z20	X21	Y21	Z21	X22	Y22	Z22	X23	Y23	Z23	X24	Y24	Z24	X25	Y25	Z25	X26	Y26	Z26	X27	Y27	Z27	
159	3.0	0.30757741800491667	0.734243485126183	0.5216169915839408	0.2645581781484707	0.8188231415282912	0.9409316086437006	0.29153489768855556	1.0086941418157287	1.367978210626179	0.2370969390764493	0.7859439107486558	1.3899549765172856	0.30811773686807065	0.8499844358754104	1.4148770405247497	0.2708237547064017	1.1511983146132208	1.4437863429327802	0.09998927147691375	0.7287575970009357	0.5149084164970025	0.10154858804590544	0.873612885803733	0.9412285325175771	0.10277270764241424	1.0076609348752026	1.3551228186660995	0.0988190093468016	0.7776041346581716	1.3698079703099497	0.054641940345983096	0.8400728982233606	1.380038414323152	0.11201915471210211	1.0957857057882856	1.4167857160433062	0.21615043422604385	0.548986571053313	-0.02364942810134948	0.17633836071045975	0.3610930705587122	-0.23909481886681377	0.16387611544003597	0.38207417010890965	-0.08509017239525478	0.3586408910139925	0.5550034239495615	0.057021957224082466	0.37005056236646466	0.6087771474725204	0.3269020942547395	0.33253870836176863	0.6117823347569656	0.5794269873892385	0.2713323287495093	0.6418588821976194	0.697210962560731	0.2942191201112008	0.6247824342965809	0.7209587591510501	0.3212350911516144	0.6384873803903522	0.7086043936543557	0.062104045050778184	0.6248839291607006	0.02914994511745441	0.034936755082257874	0.6205472811206664	0.2943011496221905	0.050886541006653484	0.6361029209728744	0.5704568361792773	0.08061424404475055	0.6047666276230539	0.6793482429364167	0.06481934905136703	0.5928499630216164	0.689969474773146	0.033637829540814165	0.6625705788417442	0.690237597620594
160	3.018867924528302	0.30791468890498747	0.7372387262055752	0.5294037672454095	0.2645822540705582	0.8187092585402811	0.940634451861823	0.29155789060018833	1.0086577128075271	1.3679844531553595	0.2370397962343479	0.7856255419991338	1.3897880999143668	0.3084147340384508	0.8505029904458087	1.41484557869899	0.2758014117151473	1.1345288524877224	1.44376932354331	0.10010211638302552	0.7289651386033511	0.5149954278482339	0.10170888268116116	0.8740032488575773	0.9411170007841455	0.10269331565335839	1.007791605453943	1.3550207883098253	0.09463326992613456	0.7933032677748995	1.3749520506507726	0.05433539336433088	0.8412745344342193	1.3805450323474249	0.11193740936757106	1.0965044622159192	1.4172172688213014	0.21595758844687418	0.5490624022389725	-0.023775618531697983	0.17619096195272455	0.36062264518425863	-0.24178862241146745	0.1639701189862785	0.38197643379989166	-0.08525801712987588	0.35883923432525205	0.5553849906939269	0.056872687973870635	0.3796710710551601	0.6232931117031066	0.3262996138027951	0.3365127832988867	0.6122774267229603	0.575690672374798	0.28413143934367335	0.6267986971045935	0.6953263321832215	0.3060431275102188	0.6119981885382322	0.7151092587681679	0.32569696980727947	0.6522303096378121	0.7138988235389366	0.062019363626000086	0.6251044909843838	0.029084338995412032	0.03490671831364258	0.6207199351937709	0.2942230674240594	0.04596191899248629	0.6498267130490331	0.56762546820778	0.07693241819889514	0.5937516265109074	0.6782784376490723	0.05974604944076859	0.605498816174928	0.6911726885518993	0.027576740387868736	0.6770365447412842	0.691870125579912
161	3.0377358490566038	0.30789130962358147	0.7344990892931544	0.5216618999680664	0.2694449135892241	0.8340380704505856	0.9431187407877817	0.2924886012085822	1.0072442855771973	1.3634010084075527	0.24166241786605996	0.7873312702710706	1.3868562896440662	0.30921071821148893	0.8527023707157472	1.415018478892452	0.2719940620067182	1.1546173817523364	1.4493447530617305	0.10016040842997331	0.7280949132243276	0.5148140107813708	0.10256020672776592	0.8733532068304145	0.9372305374262564	0.09917476374946034	1.029922485715279	1.3612373698999216	0.09473176103532407	0.7935461991936796	1.3751109925764904	0.05448107076474875	0.8413425108631446	1.3806043454258061	0.1130959060650427	1.101426693117031	1.417372852509275	0.21253255550347264	0.5623835704240032	-0.02568215982828744	0.18025792952389705	0.37144640075838375	-0.2443535450663133	0.16395179489871908	0.3815268949179747	-0.08844094328868189	0.35849419652238024	0.554135412640022	0.05336515277744552	0.38103486703826184	0.6252027210018195	0.325896061177404	0.346281338951425	0.6384889344109073	0.5808823459092936	0.29627696165705875	0.6115448324610196	0.6903587880914263	0.3110852404566049	0.6138634952312891	0.711496880848313	0.3321749505744619	0.6537398235373258	0.7095131598167727	0.0619997460027582	0.625216090095269	0.029134769297365977	0.03468859149863596	0.6203561073840137	0.294082603854243	0.0415835387616831	0.6487495538059417	0.5715164982936628	0.0724562378789913	0.5901471684388986	0.6739974899401707	0.051408251964460284	0.6191430413682572	0.6927668987675443	0.02019570997476441	0.6638024324222258	0.6904276014035068
162	3.056603773584906	0.30387580454115387	0.7198486638977238	0.5205800186982231	0.2650430161420565	0.8326094971842948	0.9430377875991542	0.29254118703977455	1.0072471329140298	1.363394501437888	0.2383472668672238	0.7895822586670009	1.390481529291967	0.3096967477445743	0.8541464536610258	1.4153224862959795	0.2709348015822498	1.1513048222393756	1.443991553063859	0.10458468151828247	0.7124805665819862	0.5140547681558738	0.09848499402170564	0.8897753032316745	0.9398743304812701	0.10044451638576599	1.0290262274846178	1.3566578861254686	0.09473352469592129	0.7941806687802524	1.3753404433267786	0.05005849511328562	0.8589551404123775	1.3862764744225395	0.11353169782413833	1.1022024829378154	1.4173090427410775	0.21245361690764009	0.5623410074770628	-0.025732154582335413	0.18005691821053998	0.37011204265590447	-0.24772994768605672	0.16387298684068966	0.38143095695519286	-0.08855607376152685	0.3589762213921051	0.5557765070422078	0.05673892577663526	0.38640389997034286	0.6380869326398995	0.32539895278845304	0.35104355253296343	0.651119967850033	0.5816050246778321	0.3093645939886955	0.6006007122839884	0.6893682033026347	0.3166217592178535	0.6274338333618881	0.7129728340042646	0.3457450581811392	0.6712765240470423	0.7090496044804047	0.062047863700857825	0.6256667974941482	0.03289602468906557	0.031154339661309333	0.6069815519891378	0.29464672795632835	0.037961771251755635	0.6341859980638271	0.5708222123838373	0.06814765335349135	0.603111845645518	0.6750188995955729	0.0421744667705357	0.6475700076517009	0.6959025095935164	0.016652434141540506	0.6620599099931904	0.6901524297192689
163	3.0754716981132075	0.30083847386480667	0.7061556566232268	0.5200717482297674	0.2745112106197914	0.8494955723358028	0.9457997438044167	0.2925185053070404	1.0076822049486214	1.3637109820609876	0.24248029420362072	0.7903159183495722	1.3912870936128283	0.3089356027129289	0.8521900410432127	1.415085613407633	0.27316171110762216	1.153203183529781	1.444470206584296	0.11117652537316887	0.7131339751183856	0.5116425234889647	0.09935411553589706	0.8931730259392008	0.9407915493973765	0.1006056373755337	1.0303367086446775	1.357129357511148	0.09466400523218371	0.7942644477774081	1.3753758501684847	0.04987661806963783	0.859053222334155	1.386343544038599	0.10982627742554067	1.1249848784509193	1.4234028694439598	0.2122710932349298	0.5622684250559854	-0.025844073750618122	0.17673669281253174	0.3816396463474764	-0.25029899226354274	0.16058205790469596	0.39331358964963187	-0.09062299015994316	0.3585933706988663	0.5542883570945305	0.0533475082463049	0.3961222798611132	0.663958537751953	0.3253879612841493	0.36404847289117376	0.6348761323832551	0.5730335867501842	0.3187041036042029	0.5958894675216567	0.681386234730162	0.3344631549921728	0.6365494151849237	0.7121461199037609	0.35643290114278586	0.6856455077451171	0.7099435939494785	0.062002707311252146	0.6257788080420411	0.03297598951080295	0.026680692445597076	0.618915166715827	0.2942275993441899	0.033353362248861075	0.6498794283858317	0.5726910946172037	0.05961402919551312	0.6326953221092579	0.6826839313646355	0.025195885653866112	0.6666995459849653	0.7025070816161718	0.004430220998432916	0.6604530488889085	0.6897532899913417
164	3.0943396226415096	0.308038378360745	0.7043299229032506	0.5241143250111839	0.2753040098288797	0.8480268771505373	0.941048417919445	0.2946566906888756	1.041919435203862	1.3693448987431116	0.24069471292712816	0.7995530263574964	1.39062067339902	0.3093014131025765	0.8538598380545028	1.4153656397899792	0.27306284720646723	1.1480312074096155	1.4333138904320109	0.10651457534228105	0.7125291280997472	0.511935596218486	0.09851382673074556	0.8907366630330826	0.9358095800378946	0.10055989055076284	1.030149533437005	1.3569857395140097	0.09479998923667725	0.7942469976993707	1.3753147465561286	0.05314187644967074	0.8747092317372143	1.3910537317389138	0.10969860619775479	1.1243574437129573	1.4230698832750959	0.2122400850398876	0.5622845664533622	-0.025842579515245434	0.1768078796936689	0.3818497879945299	-0.25032200273702954	0.16062165784406315	0.3934031148692601	-0.09066292352668981	0.3586027494348547	0.5543189095187321	0.05328879781119115	0.4023742951251237	0.6590562405144612	0.3175027150137696	0.3790971056599419	0.6046851644667454	0.570878837616882	0.32499588455112177	0.5992909850248661	0.6816495623969283	0.34798215056140425	0.6642095986500443	0.7202657972091367	0.35820670046011854	0.6879732286017615	0.7113211674463908	0.06220291431209214	0.6277792851646029	0.03647701555717739	0.026492303900673145	0.6194607073921444	0.29432203753152103	0.02874531470865648	0.6497297234500992	0.576629423062141	0.04701569508085723	0.6334092819083491	0.6870579682662122	0.013360724167582824	0.6630499776958181	0.7020746633709546	-0.0030829275502706702	0.6454055635745726	0.6878973709828788
165	3.1132075471698113	0.3057482942458952	0.6982003312214439	0.5121915866644863	0.279944679389754	0.8625978713495852	0.9436142812327973	0.2946872583996185	1.04205964653552	1.3693307449873564	0.24162006260854924	0.8022690210579767	1.394650810325022	0.30924036189162896	0.8534149179057039	1.4152329073328374	0.2774322892299922	1.149998047307746	1.4294390760367102	0.1002686969842747	0.7071515674000417	0.50601412163381	0.09846098531069622	0.8904157776512669	0.9357724746369851	0.10076316976258087	1.030464225537337	1.3570838612981828	0.09825124539920342	0.8099495563239666	1.3804613233990195	0.052935414848425934	0.8757899158318125	1.391582103909099	0.10995623249522372	1.1253084996352107	1.4234601552023336	0.21217176023208228	0.5622434842563019	-0.025878853140225155	0.1768763526071764	0.38200806077158406	-0.2503579788205621	0.16066264156246624	0.39347025708304795	-0.09071457655465885	0.3558069077723306	0.5679783477076824	0.05174603956669571	0.4066418484452147	0.6683174991489185	0.30960888450441	0.3936513652920606	0.5879081451612914	0.5692343969402107	0.3284158752550318	0.6121705985954298	0.6833154965169753	0.3556190205945757	0.6622928411416261	0.7207412174790855	0.3656157513108047	0.6727034739736132	0.7090623011618736	0.06217100056551728	0.6277409611355933	0.036506773727915	0.022546146980264112	0.6182669690239795	0.2979608303295119	0.020715059375375294	0.6325171041743886	0.5713995985571787	0.04226805145740398	0.6470479771935826	0.688403451675795	0.008715473025037866	0.659142123289199	0.6976028080812677	-0.010373823837384043	0.6301402297626335	0.6860101054816177
